<svg width="80" height="66" viewBox="0 0 80 66" fill="none" xmlns="http://www.w3.org/2000/svg">
<path d="M59.4401 15.888C56.4001 15.672 53.6001 16.248 51.1201 17.4C50.4801 17.688 49.8401 17.832 49.1201 17.832H30.8801C30.1601 17.832 29.5201 17.688 28.8801 17.4C26.4001 16.248 23.6001 15.672 20.5601 15.888C12.4001 16.392 5.92006 22.728 6.00006 30.072C6.08006 37.848 13.1201 44.112 21.7601 44.112C26.1601 44.112 30.1601 42.456 33.0401 39.864C33.9201 39.072 35.1201 38.64 36.3201 38.64H43.8401C45.0401 38.64 46.2401 39.072 47.1201 39.864C50.0001 42.528 53.9201 44.112 58.4001 44.112C67.0401 44.112 74.0801 37.848 74.1601 30.072C74.0801 22.728 67.6001 16.392 59.4401 15.888Z" fill="#333333"/>
<path d="M28.5601 28.128H23.7601V23.808C23.7601 23.376 23.3601 23.016 22.8801 23.016H20.5601C20.0801 23.016 19.6801 23.376 19.6801 23.808V28.128H14.8801C14.4001 28.128 14.0001 28.488 14.0001 28.92V31.008C14.0001 31.44 14.4001 31.8 14.8801 31.8H19.6801V36.12C19.6801 36.552 20.0801 36.912 20.5601 36.912H22.8801C23.3601 36.912 23.7601 36.552 23.7601 36.12V31.8H28.5601C29.0401 31.8 29.4401 31.44 29.4401 31.008V28.92C29.5201 28.488 29.1201 28.128 28.5601 28.128Z" fill="#E0E0E0"/>
<path d="M58.2401 38.2079C59.7423 38.2079 60.9601 37.1119 60.9601 35.7599C60.9601 34.408 59.7423 33.312 58.2401 33.312C56.7379 33.312 55.5201 34.408 55.5201 35.7599C55.5201 37.1119 56.7379 38.2079 58.2401 38.2079Z" fill="#F8B26A"/>
<path d="M64.6402 32.448C66.1424 32.448 67.3602 31.352 67.3602 30C67.3602 28.648 66.1424 27.552 64.6402 27.552C63.138 27.552 61.9202 28.648 61.9202 30C61.9202 31.352 63.138 32.448 64.6402 32.448Z" fill="#77A4BD"/>
<path d="M58.2401 26.688C59.7423 26.688 60.9601 25.592 60.9601 24.24C60.9601 22.888 59.7423 21.792 58.2401 21.792C56.7379 21.792 55.5201 22.888 55.5201 24.24C55.5201 25.592 56.7379 26.688 58.2401 26.688Z" fill="#849B87"/>
<path d="M51.8401 32.448C53.3423 32.448 54.5601 31.352 54.5601 30C54.5601 28.648 53.3423 27.552 51.8401 27.552C50.3378 27.552 49.1201 28.648 49.1201 30C49.1201 31.352 50.3378 32.448 51.8401 32.448Z" fill="#F47E60"/>
</svg>
